<svg width="193" height="153" viewBox="0 0 193 153" fill="none" xmlns="http://www.w3.org/2000/svg">
<g clip-path="url(#clip0_1_39135)">
<g clip-path="url(#clip1_1_39135)">
<path fill-rule="evenodd" clip-rule="evenodd" d="M147.695 93.9034C146.574 93.6228 145.456 94.3343 145.165 95.3571C144.884 96.4781 145.596 97.5952 146.619 97.886C147.741 98.1666 148.858 97.4551 149.149 96.4323C149.43 95.3113 148.817 94.184 147.695 93.9034Z" fill="#F5C138"/>
<path d="M144.455 46.6817C141.745 47.36 139.034 48.0384 136.324 48.7167C134.193 49.2357 135.692 53.1496 137.823 52.6306C140.533 51.9523 143.243 51.2739 145.954 50.5956C148.084 50.0766 146.586 46.1627 144.455 46.6817Z" fill="#F8EA68"/>
<path d="M39.6856 120.103C35.5554 119.539 31.6356 120.045 27.8381 121.73C26.1308 122.502 27.6563 125.719 29.3739 125.044C32.6023 123.617 36.1393 123.25 39.6697 123.777C41.5875 124.074 41.5051 120.41 39.6856 120.103Z" fill="#F8EA68"/>
<path d="M117.257 20.6193C114.804 18.9882 113.614 16.134 114.29 13.0861C114.697 11.2574 111.688 10.9742 111.282 12.8029C110.412 16.8634 111.714 20.7977 115.015 22.9364C116.513 23.972 118.657 21.6651 117.257 20.6193Z" fill="#F8EA68"/>
<path d="M138.956 19.2775C138.838 21.9696 137.815 24.5572 136.034 26.5287C135.055 27.6228 136.712 29.2374 137.691 28.1432C139.913 25.6297 141.189 22.6189 141.334 19.2292C141.29 17.8442 139.009 17.8824 138.956 19.2775Z" fill="#E885B8"/>
<path d="M61.9882 130.345C57.8377 129.606 58.044 126.655 57.2676 124.113C56.8316 122.712 54.595 123.304 55.031 124.706C55.3945 128.208 56.9365 131.352 60.8081 132.41C62.0192 133.084 63.1576 131.108 61.9882 130.345Z" fill="#E885B8"/>
<path d="M172.984 64.678C171.195 67.5435 168.241 68.7434 165.27 67.8608C163.43 67.357 163.306 70.9431 165.146 71.4469C169.13 72.5221 173.016 70.7292 175.4 66.9085C176.406 65.1168 174.098 62.9742 172.984 64.678Z" fill="#98D3F4"/>
<path d="M12.3975 53.0514C10.8458 53.411 11.565 56.5125 13.1166 56.1529C16.2199 55.4337 19.2999 56.4043 21.8145 58.6247C23.126 59.7789 24.3245 56.9746 23.013 55.8204C19.8478 53.0721 16.08 52.1729 12.3975 53.0514Z" fill="#97CB5F"/>
<path d="M160.752 137.411C156.836 138.91 154.902 142.286 155.635 146.478C155.907 148.137 159.044 148.705 158.763 146.948C158.23 143.728 159.645 141.099 162.599 139.899C164.229 139.333 162.283 136.855 160.752 137.411Z" fill="#97CB5F"/>
<path d="M25.2391 96.7885C21.475 96.8815 19.1773 94.8371 19.0949 91.1733C19.0977 89.2871 15.6052 91.0392 15.6024 92.9254C15.5902 97.5916 18.5691 100.459 23.4139 100.253C25.3993 100.246 27.2143 96.6828 25.2391 96.7885Z" fill="#98D3F4"/>
<path d="M182.093 116.702C178.356 116.097 175.174 114.145 172.872 111.108C171.727 109.639 169.64 111.543 170.786 113.012C173.541 116.597 177.452 118.871 181.887 119.502C183.706 119.81 183.912 117.009 182.093 116.702Z" fill="#E885B8"/>
<path d="M162.557 19.9045C159.979 21.8594 157.639 24.1867 155.525 26.7882C154.205 28.4142 156.631 30.7429 157.952 29.117C159.889 26.7323 162.064 24.72 164.455 22.8836C166.111 21.6199 164.213 18.6408 162.557 19.9045Z" fill="#98D3F4"/>
<path d="M36.7466 85.5401C35.3711 85.6829 34.4025 86.8752 34.5452 88.25C34.6879 89.6247 35.8808 90.5927 37.2563 90.4499C38.6318 90.3071 39.6004 89.1148 39.4577 87.74C39.315 86.3653 38.1221 85.3973 36.7466 85.5401Z" fill="#E885B8"/>
<path d="M137.767 127.486C136.604 126.812 135.063 127.27 134.389 128.432C133.715 129.593 134.173 131.134 135.335 131.807C136.498 132.481 138.039 132.023 138.713 130.861C139.377 129.601 138.929 128.159 137.767 127.486Z" fill="#F8EA68"/>
<path d="M22.9705 33.6993C21.1205 33.0973 19.1286 33.9989 18.5159 35.7498C17.9032 37.5007 18.9032 39.4813 20.6652 40.1917C22.5152 40.7937 24.5071 39.8921 25.1199 38.1412C25.7224 36.292 24.8308 34.3995 22.9705 33.6993Z" fill="#98D3F4"/>
<path d="M74.4431 38.778C75.5826 38.6597 76.4105 37.6406 76.2923 36.5017C76.174 35.3628 75.1545 34.5355 74.0149 34.6537C72.8754 34.772 72.0475 35.7912 72.1657 36.9301C72.284 38.0689 73.3036 38.8963 74.4431 38.778Z" fill="#F8EA68"/>
<path d="M165.111 51.2025C166.087 51.1011 166.797 50.2275 166.696 49.2513C166.594 48.2752 165.72 47.566 164.744 47.6674C163.767 47.7688 163.057 48.6423 163.159 49.6185C163.26 50.5947 164.134 51.3039 165.111 51.2025Z" fill="#97CB5F"/>
<path d="M45.3097 141.951C44.0631 142.378 43.4096 143.736 43.8267 144.884C44.2539 146.13 45.6025 146.684 46.8492 146.257C48.0959 145.83 48.7494 144.472 48.3323 143.324C47.905 142.078 46.5564 141.523 45.3097 141.951Z" fill="#97CB5F"/>
<path d="M137.412 150.14C135.986 149.792 134.485 150.642 134.136 152.068C133.788 153.494 134.629 154.895 136.055 155.244C137.481 155.592 138.982 154.741 139.331 153.316C139.689 151.988 138.849 150.586 137.412 150.14Z" fill="#98D3F4"/>
</g>
<g opacity="0.99">
<g opacity="0.99">
<path opacity="0.99" fill-rule="evenodd" clip-rule="evenodd" d="M91.5841 107.444C91.5841 107.444 94.0972 101.039 103.276 105.513C112.556 109.977 126.409 108.13 133.168 103.127C133.168 103.127 133.485 98.2812 138.696 97.1259L137.83 101.619C137.83 101.619 140.218 99.9376 143.842 100.278C143.842 100.278 142.598 104.094 141.192 105.366L145.354 105.958C145.354 105.958 143.239 110.274 137.461 108.928C137.461 108.928 122.741 129.093 98.6798 119.507C98.5889 119.619 88.2144 115.474 91.5841 107.444Z" fill="#513970"/>
</g>
</g>
<path fill-rule="evenodd" clip-rule="evenodd" d="M112.695 150.821C109.263 147.388 105.619 149.815 105.477 155.359C105.335 160.903 107.714 165.06 110.772 168.838C113.829 172.617 121.565 181.952 121.565 181.952L140.056 166.515L130.378 167.11C130.378 167.11 116.127 154.253 112.695 150.821Z" fill="#6F568E"/>
<g opacity="0.99">
<g opacity="0.99">
<path opacity="0.99" fill-rule="evenodd" clip-rule="evenodd" d="M73.9504 154.843L63.0935 151.976L62.5607 161.657L54.1875 160.99L55.0814 169.602L48.0237 170.744L49.4804 177.863L60.8829 166.235L73.9504 154.843Z" fill="#0D1013"/>
</g>
</g>
<path fill-rule="evenodd" clip-rule="evenodd" d="M67.0101 104.772L57.1081 102.216L60.1209 93.711L49.8515 90.5786L54.4481 79.5541L41.4508 76.8072L48.8452 65.0827L67.0101 104.772Z" fill="#0D1013"/>
<path fill-rule="evenodd" clip-rule="evenodd" d="M113.242 128.441C110.583 111.718 108.012 93.8598 104.908 71.8585C105.069 71.4322 105.198 70.702 105.114 69.8915C103.279 59.1251 48.9941 58.6159 48.9941 58.6159C48.9941 58.6159 46.5779 61.0172 49.1953 66.4799C56.3722 81.3 74.1516 118.265 79.1301 139.559C81.7279 150.759 72.7123 154.766 63.2188 164.046C63.2188 164.046 53.134 172.569 46.113 180.977C39.183 189.275 42.8974 189.503 42.8974 189.503C42.8974 189.503 44.3346 188.535 47.0483 187.024C57.6093 181.115 66.5099 178.963 71.6894 177.503C78.3692 175.684 87.997 172.636 100.052 167.289C100.052 167.289 105.479 164.268 109.661 159.123C116.64 150.309 113.242 128.441 113.242 128.441Z" fill="#FF6170"/>
<path fill-rule="evenodd" clip-rule="evenodd" d="M115.267 127.206C114.832 122.029 113.342 108.667 106.514 75.4806L106.504 75.3793C106.504 75.3793 90.9657 65.9329 81.7608 68.1172C76.2561 69.4054 71.2456 75.4552 72.8586 78.155C73.8593 79.8944 75.8322 81.1232 78.6931 81.031C78.6931 81.031 95.3732 128.145 96.0484 143.538C96.4847 154.654 89.7747 162.109 75.6391 167.16C75.6391 167.16 53.2992 176.135 47.1497 187.014C57.1968 182.08 65.821 179.239 71.7908 177.493C77.7606 175.747 90.2494 172.607 100.153 167.278C102.482 166.012 106.441 163.656 109.762 159.113C109.843 158.899 111.559 156.673 112.776 153.577C116.698 143.954 115.498 129.435 115.267 127.206Z" fill="#FFC500"/>
<path fill-rule="evenodd" clip-rule="evenodd" d="M98.1772 79.1109C98.1772 79.1109 100.377 78.5753 103.245 77.5608C104.734 77.099 106.305 76.424 107.875 75.749C113.093 73.6713 119.674 69.9161 120.048 69.5701C120.048 69.5701 117.608 59.8904 111.736 46.7781C105.875 33.7672 91.879 38.1897 72.3055 46.1608C64.8285 49.1897 47.8988 55.9648 47.8988 55.9648C47.8988 55.9648 55.1936 66.9837 63.4217 75.1409C76.4459 88.0227 98.1772 79.1109 98.1772 79.1109Z" fill="#FF6170"/>
<path fill-rule="evenodd" clip-rule="evenodd" d="M44.2802 31.9687C46.0217 30.9688 47.5536 30.9121 48.3793 31.9528C49.2049 32.9936 48.4604 34.7093 47.5197 35.5237C46.5791 36.3382 44.9991 39.8814 44.5761 40.7446C44.1531 41.6077 42.6738 42.1708 41.8203 41.8498C40.8654 41.5393 40.5259 40.2434 40.5116 39.1184C40.5635 36.6554 41.6679 33.4687 44.2802 31.9687Z" fill="#0D1013"/>
<path fill-rule="evenodd" clip-rule="evenodd" d="M65.1513 23.6582C63.2768 24.3648 62.1648 25.5042 62.403 26.8107C62.6411 28.1172 64.439 28.6474 65.747 28.4092C66.9535 28.1816 70.7626 29.3222 71.7175 29.6327C72.6618 29.8419 74.0292 29.1879 74.3403 28.234C74.6513 27.2801 73.9166 26.1276 73.133 25.4921C71.2195 23.8475 68.019 22.6437 65.1513 23.6582Z" fill="#0D1013"/>
<path fill-rule="evenodd" clip-rule="evenodd" d="M49.6158 39.9142C55.7148 37.4379 62.686 40.4007 65.1637 46.4924C67.6414 52.5841 64.6736 59.5483 58.5746 62.0246C52.4756 64.5009 45.5044 61.5381 43.0267 55.4464C40.549 49.3547 43.4153 42.4011 49.6158 39.9142Z" fill="#6F568E"/>
<path fill-rule="evenodd" clip-rule="evenodd" d="M65.7304 32.2C71.8294 29.7236 78.8006 32.6864 81.2783 38.7781C83.756 44.8698 80.7882 51.834 74.6892 54.3103C68.5901 56.7866 61.6189 53.8238 59.1413 47.7321C56.6636 41.6404 59.6314 34.6763 65.7304 32.2Z" fill="#6F568E"/>
<path fill-rule="evenodd" clip-rule="evenodd" d="M51.1521 43.8509C55.0829 42.214 59.5846 44.102 61.1209 48.0386C62.6573 51.9751 60.7662 56.4723 56.9263 57.9973C52.9955 59.6342 48.4938 57.7462 46.9575 53.8096C45.4211 49.8731 47.2213 45.4877 51.1521 43.8509Z" fill="white"/>
<path fill-rule="evenodd" clip-rule="evenodd" d="M52.6674 47.5849C54.5419 46.8783 56.6756 47.6808 57.3825 49.5531C58.0894 51.4253 57.2855 53.5568 55.411 54.2634C53.5365 54.9699 51.4029 54.1674 50.6959 52.2952C49.8981 50.5348 50.8035 48.3928 52.6674 47.5849Z" fill="#0D1013"/>
<path fill-rule="evenodd" clip-rule="evenodd" d="M67.3786 36.2271C71.3094 34.5903 75.8111 36.4782 77.3475 40.4148C78.8838 44.3514 76.9927 48.8485 73.1528 50.3735C69.3129 51.8985 64.7203 50.1224 63.0826 46.1964C61.4448 42.2703 63.4373 37.7626 67.3786 36.2271Z" fill="white"/>
<path fill-rule="evenodd" clip-rule="evenodd" d="M68.894 39.9611C70.7684 39.2545 72.9021 40.057 73.609 41.9293C74.316 43.8015 73.5121 45.933 71.6376 46.6396C69.7631 47.3462 67.6294 46.5436 66.9225 44.6714C66.1141 42.8097 67.0195 40.6677 68.894 39.9611Z" fill="#0D1013"/>
<path fill-rule="evenodd" clip-rule="evenodd" d="M99.649 32.0583C102.895 31.7214 105.697 35.0146 105.946 39.3919C106.196 43.7693 103.713 47.5086 100.468 47.8455C97.2221 48.1825 94.4198 44.8893 94.1705 40.5119C93.9211 36.1345 96.4034 32.3952 99.649 32.0583Z" fill="#FF6170"/>
<path fill-rule="evenodd" clip-rule="evenodd" d="M100.839 35.6213C102.088 35.7989 102.976 37.4474 102.771 39.4144C102.666 41.3709 101.484 42.8248 100.337 42.6367C99.0884 42.4591 98.1996 40.8105 98.4055 38.8435C98.5205 36.9883 99.6009 35.545 100.839 35.6213Z" fill="#0D1013"/>
<path fill-rule="evenodd" clip-rule="evenodd" d="M111.915 34.6761C114.759 35.405 115.858 39.0797 114.411 42.9164C113.065 46.7425 109.635 49.2491 106.791 48.5202C103.948 47.7914 102.849 44.1166 104.296 40.28C105.743 36.4433 109.072 33.9473 111.915 34.6761Z" fill="#FF6170"/>
<path fill-rule="evenodd" clip-rule="evenodd" d="M111.014 37.8418C112.081 38.2431 112.35 39.8535 111.686 41.3561C111.022 42.8587 109.585 43.8271 108.518 43.4258C107.451 43.0245 107.181 41.4141 107.845 39.9115C108.601 38.2971 110.048 37.43 111.014 37.8418Z" fill="#0D1013"/>
<path fill-rule="evenodd" clip-rule="evenodd" d="M82.1244 156.554C82.277 151.111 85.0494 146.215 89.4782 150.364C93.8161 154.624 97.8121 162.503 98.4709 167.862C99.1296 173.221 99.9927 184.498 99.9927 184.498L74.5561 187.343L82.2104 180.098C82.1999 179.996 81.9057 163.335 82.1244 156.554Z" fill="#6F568E"/>
<path d="M106.7 76.2807C102.08 78.1938 94.722 80.3913 85.0445 80.9862C78.8261 81.3245 70.3831 80.9721 66.4997 76.1527C66.1534 75.7791 65.5343 75.7409 65.1496 75.9857C64.6741 76.3422 64.6357 76.9606 64.9821 77.3343C72.4235 86.802 96.6881 82.5424 107.193 78.0727C106.949 77.6885 106.885 77.0806 106.7 76.2807Z" fill="white"/>
<path d="M141.152 66.2307C142.426 63.8367 145.957 64.1608 146.771 66.7463L151.112 80.528C151.455 81.6158 152.375 82.4223 153.5 82.6198L167.745 85.1225C170.418 85.5921 171.2 89.0472 168.99 90.6204L157.208 99.006C156.278 99.6679 155.795 100.792 155.954 101.921L157.97 116.228C158.348 118.912 155.3 120.724 153.12 119.11L141.497 110.511C140.58 109.833 139.361 109.721 138.335 110.221L125.335 116.561C122.896 117.75 120.231 115.414 121.093 112.844L125.692 99.1439C126.055 98.0626 125.785 96.8695 124.991 96.0496L114.941 85.6605C113.056 83.7114 114.456 80.4566 117.17 80.4813L131.634 80.6133C132.776 80.6237 133.828 79.9982 134.364 78.9911L141.152 66.2307Z" fill="#FFD84E"/>
<path fill-rule="evenodd" clip-rule="evenodd" d="M79.409 106.356C79.409 106.356 80.8796 99.2526 91.4231 102.316C101.965 105.481 116.128 101.075 122.379 94.5765C122.379 94.5765 121.771 89.3676 127.116 87.3342L127.016 92.2233C127.016 92.2233 129.203 90.025 133.083 89.7966C133.083 89.7966 132.486 94.0644 131.127 95.6677L135.617 95.5533C135.617 95.5533 134.09 100.414 127.876 100.086C127.876 100.086 115.97 123.795 88.9646 117.857C88.9646 117.857 77.2873 115.383 79.409 106.356Z" fill="#6F568E"/>
<path fill-rule="evenodd" clip-rule="evenodd" d="M69.9984 81.2167L72.609 87.6018L79.8268 83.0637L85.2631 88.0291L91.5327 82.2582L98.588 86.0315L101.955 79.9475L101.86 79.0357C97.8872 80.2673 92.7776 81.4121 86.783 81.932C80.068 82.4242 74.3739 81.8889 69.9984 81.2167Z" fill="white"/>
</g>
<defs>
<clipPath id="clip0_1_39135">
<rect width="175.269" height="175.269" fill="white" transform="translate(0.105469 18.8594) rotate(-5.92629)"/>
</clipPath>
<clipPath id="clip1_1_39135">
<rect width="182.937" height="182.937" fill="white" transform="translate(-3.84186 12.6613) rotate(-5.92629)"/>
</clipPath>
</defs>
</svg>
